<svg width="18" height="22" viewBox="0 0 18 22" fill="none" xmlns="http://www.w3.org/2000/svg">
<path d="M14.9953 0.101562C14.3672 0.206094 13.7625 0.242188 13.2656 0.350469C12.5719 0.499531 12.1313 0.70625 11.8688 1.40094C11.8031 1.58281 11.8219 1.68219 11.8875 1.80453C11.9531 1.92734 12.0985 2.06328 12.286 2.17016C12.4735 2.2775 12.6985 2.35437 12.8906 2.38672C13.0781 2.41906 13.2422 2.38672 13.2422 2.38672H13.2469C14.086 2.00422 14.6625 1.08219 14.9953 0.101562ZM11.5875 2.71625C11.4281 3.65844 10.9547 4.52375 10.4063 5.35344C10.3875 5.45656 10.3641 5.555 10.336 5.65344C10.2094 6.08937 9.98439 6.50656 9.66564 6.86281L9.67033 6.8675C10.0313 6.59094 10.3969 6.42219 10.7578 6.33781C11.4281 5.39094 12.1078 4.33625 12.3703 3.12594C12.1969 3.07016 12.0281 2.99656 11.8641 2.90328C11.7703 2.84844 11.6766 2.78609 11.5875 2.71625ZM7.57033 3.11984C7.01252 3.11516 6.37502 3.22578 5.67658 3.40109C4.57502 3.67719 3.3797 4.0925 2.23127 4.33625C3.08439 5.12375 3.74533 5.95344 4.44377 6.51125C5.3297 7.21437 6.21564 7.56125 7.89377 7.03625C8.75158 6.76906 9.32814 6.11281 9.52502 5.41906C9.72658 4.72531 9.57658 4.02219 8.94845 3.52438C8.5922 3.24266 8.12345 3.12453 7.57033 3.11984ZM11.3766 7.07375C10.9688 7.06906 10.561 7.21438 10.0735 7.62688C8.9672 8.55969 9.47814 9.53469 9.97033 9.755H9.97502C10.0875 9.80656 10.3781 9.82531 10.7485 9.74562C11.1235 9.66594 11.5735 9.49719 12.0375 9.27219C12.7172 8.94406 13.4156 8.48937 13.9547 8.03469C13.336 7.80031 12.7781 7.46281 12.2485 7.27063C11.9719 7.1675 11.7141 7.0925 11.4563 7.07844C11.4281 7.07844 11.4 7.07375 11.3766 7.07375ZM8.46564 10.1112C6.21564 10.1347 4.18595 10.3269 2.71408 10.6081C1.92189 10.7581 1.28392 10.9409 0.881267 11.1238C0.679705 11.2128 0.538611 11.3066 0.471111 11.3722C0.446736 11.3956 0.442048 11.4003 0.435486 11.4097C0.442048 11.4191 0.446736 11.4237 0.471111 11.4472C0.538611 11.5128 0.679705 11.6066 0.881267 11.6956C1.28392 11.8784 1.92189 12.0612 2.71408 12.2113C4.30314 12.5159 6.53439 12.7081 9.00002 12.7081C11.4656 12.7081 13.6969 12.5159 15.286 12.2113C16.0781 12.0612 16.7156 11.8784 17.1188 11.6956C17.3203 11.6066 17.461 11.5128 17.5313 11.4472C17.5547 11.4237 17.5594 11.4191 17.5641 11.4097C17.5594 11.4003 17.5547 11.3956 17.5313 11.3722C17.461 11.3066 17.3203 11.2128 17.1188 11.1238C16.7156 10.9409 16.0781 10.7581 15.286 10.6081C14.3813 10.4347 13.2656 10.2988 12.0188 10.2097C11.6438 10.3691 11.2781 10.4956 10.9266 10.5706C10.4625 10.6691 10.0266 10.7019 9.62814 10.5238C9.52502 10.4769 9.42658 10.4206 9.33752 10.355C9.3797 10.7675 9.43127 11.18 9.48752 11.5972L8.65314 11.7191C8.57345 11.1847 8.50783 10.655 8.46564 10.1112ZM0.765486 12.5628L1.13533 14.4097C1.61345 14.8175 2.68127 15.2253 4.04064 15.4878C5.4797 15.7597 7.2422 15.9003 9.00002 15.9003C10.7578 15.9003 12.5203 15.7597 13.9594 15.4878C15.3188 15.2253 16.3875 14.8175 16.8656 14.4097L17.236 12.5628C16.7578 12.7456 16.1531 12.905 15.4453 13.0409C13.7766 13.3597 11.5078 13.5519 9.00002 13.5519C6.4922 13.5519 4.22345 13.3597 2.5547 13.0409C1.84689 12.905 1.24314 12.7456 0.765486 12.5628ZM2.8547 16.0878L3.40314 20.4659C3.70783 20.8456 4.4297 21.2394 5.4047 21.4925C6.43595 21.7597 7.71564 21.9003 9.00002 21.9003C10.2844 21.9003 11.5641 21.7597 12.5953 21.4925C13.5703 21.2394 14.2922 20.8456 14.5969 20.4659L15.1453 16.0878C14.8219 16.1722 14.4797 16.2425 14.1188 16.3128C12.6047 16.6034 10.8047 16.7441 9.00002 16.7441C7.19533 16.7441 5.39533 16.6034 3.88127 16.3128C3.52033 16.2472 3.17814 16.1722 2.8547 16.0878Z" fill="#113E2E"/>
</svg>
