<svg width="24" height="17" viewBox="0 0 24 17" fill="none" xmlns="http://www.w3.org/2000/svg">
<path d="M22.3176 0.28125H1.69007C1.02671 0.28125 0.483826 0.88461 0.483826 1.48125C0.483826 2.07789 1.02671 2.68077 1.69007 2.68077H1.98143V5.08077H22.0555V2.68077H22.3176C22.9814 2.68077 23.5238 2.07789 23.5238 1.48125C23.5238 0.88461 22.9814 0.28125 22.3176 0.28125ZM12.0038 3.89085C11.6707 3.89085 11.4009 3.61293 11.4009 3.27069C11.4009 2.92845 11.6707 2.65053 12.0038 2.65053C12.3374 2.65053 12.6067 2.92845 12.6067 3.27069C12.6067 3.61293 12.3374 3.89085 12.0038 3.89085ZM1.98143 9.88029H22.0555V6.04125H1.98143V9.88029ZM12.0038 7.30077C12.3374 7.30077 12.6067 7.57821 12.6067 7.92045C12.6067 8.26317 12.3374 8.54061 12.0038 8.54061C11.6707 8.54061 11.4009 8.26317 11.4009 7.92045C11.4005 7.57821 11.6707 7.30077 12.0038 7.30077ZM1.98143 13.1908V15.9816C1.98143 16.3224 2.02415 16.6017 2.35583 16.6017H4.76735C5.09903 16.6017 5.24927 16.3224 5.24927 15.9816V14.2008H18.7877V15.9816C18.7877 16.3224 18.9086 16.6017 19.2398 16.6017H21.6518C21.9825 16.6017 22.055 16.3224 22.055 15.9816V10.8412H1.98143V13.1908ZM12.0038 11.951C12.3374 11.951 12.6067 12.2289 12.6067 12.5707C12.6067 12.9139 12.3374 13.1904 12.0038 13.1904C11.6707 13.1904 11.4009 12.9139 11.4009 12.5707C11.4005 12.2294 11.6707 11.951 12.0038 11.951Z" fill="#113E2E"/>
</svg>
