<svg width="30" height="22" viewBox="0 0 30 22" fill="none" xmlns="http://www.w3.org/2000/svg">
<path d="M2.99998 0.333008C2.29274 0.333008 1.61446 0.613959 1.11436 1.11406C0.614265 1.61415 0.333313 2.29243 0.333313 2.99967V17.6663H2.99998C2.99998 18.7272 3.42141 19.7446 4.17155 20.4948C4.9217 21.2449 5.93911 21.6663 6.99998 21.6663C8.06085 21.6663 9.07826 21.2449 9.82841 20.4948C10.5786 19.7446 11 18.7272 11 17.6663H19C19 18.7272 19.4214 19.7446 20.1716 20.4948C20.9217 21.2449 21.9391 21.6663 23 21.6663C24.0608 21.6663 25.0783 21.2449 25.8284 20.4948C26.5786 19.7446 27 18.7272 27 17.6663H29.6666V10.9997L25.6666 5.66634H21.6666V0.333008M12.3333 2.99967L17.6666 8.33301L12.3333 13.6663V9.66634H4.33331V6.99967H12.3333M21.6666 7.66634H25L27.6266 10.9997H21.6666M6.99998 15.6663C7.53041 15.6663 8.03912 15.8771 8.41419 16.2521C8.78927 16.6272 8.99998 17.1359 8.99998 17.6663C8.99998 18.1968 8.78927 18.7055 8.41419 19.0806C8.03912 19.4556 7.53041 19.6663 6.99998 19.6663C6.46955 19.6663 5.96084 19.4556 5.58577 19.0806C5.21069 18.7055 4.99998 18.1968 4.99998 17.6663C4.99998 17.1359 5.21069 16.6272 5.58577 16.2521C5.96084 15.8771 6.46955 15.6663 6.99998 15.6663ZM23 15.6663C23.5304 15.6663 24.0391 15.8771 24.4142 16.2521C24.7893 16.6272 25 17.1359 25 17.6663C25 18.1968 24.7893 18.7055 24.4142 19.0806C24.0391 19.4556 23.5304 19.6663 23 19.6663C22.4695 19.6663 21.9608 19.4556 21.5858 19.0806C21.2107 18.7055 21 18.1968 21 17.6663C21 17.1359 21.2107 16.6272 21.5858 16.2521C21.9608 15.8771 22.4695 15.6663 23 15.6663Z" fill="#113E2E"/>
</svg>
