<svg width="28" height="28" viewBox="0 0 28 28" fill="none" xmlns="http://www.w3.org/2000/svg">
<path d="M27.6641 20.9394C27.4222 22.7856 26.5181 24.4812 25.1199 25.7109C23.7217 26.9407 21.9245 27.6208 20.0625 27.6249C9.20703 27.6249 0.375 18.7929 0.375 7.9374C0.379105 6.07537 1.05924 4.27819 2.28896 2.87998C3.51867 1.48178 5.21429 0.577703 7.06055 0.335841C7.5312 0.283657 8.00623 0.382748 8.41677 0.618744C8.8273 0.854741 9.15199 1.21537 9.34375 1.64834L12.0918 8.06045C12.2343 8.39328 12.2915 8.75644 12.2581 9.11697C12.2246 9.47749 12.1017 9.82395 11.9004 10.1249L9.63086 13.5976C10.6586 15.6832 12.3519 17.3669 14.4434 18.3827L17.875 16.0995C18.1756 15.8969 18.523 15.7742 18.8842 15.7431C19.2454 15.712 19.6086 15.7735 19.9395 15.9218L26.3516 18.6562C26.7845 18.8479 27.1452 19.1726 27.3812 19.5831C27.6172 19.9937 27.7162 20.4687 27.6641 20.9394ZM17.5195 3.52139C19.1844 3.97623 20.7019 4.85731 21.9222 6.07768C23.1426 7.29805 24.0237 8.81553 24.4785 10.4804C24.5389 10.7141 24.6748 10.9213 24.8653 11.0697C25.0557 11.2181 25.2898 11.2993 25.5312 11.3007C25.6284 11.3005 25.725 11.2867 25.8184 11.2597C25.9574 11.2233 26.0878 11.1595 26.2019 11.0721C26.3159 10.9847 26.4114 10.8754 26.4827 10.7506C26.554 10.6259 26.5997 10.4881 26.6171 10.3454C26.6345 10.2028 26.6232 10.0581 26.584 9.91983C26.0371 7.88092 24.9635 6.02178 23.4708 4.5291C21.9781 3.03643 20.119 1.96276 18.0801 1.41592C17.9374 1.36394 17.7855 1.34224 17.634 1.3522C17.4824 1.36216 17.3347 1.40356 17.2 1.47376C17.0654 1.54396 16.9468 1.64143 16.8519 1.75995C16.757 1.87848 16.6878 2.01547 16.6488 2.16221C16.6097 2.30894 16.6016 2.4622 16.625 2.61223C16.6484 2.76225 16.7028 2.90576 16.7847 3.03362C16.8666 3.16148 16.9743 3.27087 17.1008 3.35485C17.2273 3.43883 17.3699 3.49554 17.5195 3.52139ZM16.3848 7.746C17.3102 7.99932 18.1537 8.48934 18.8321 9.16778C19.5106 9.84623 20.0006 10.6897 20.2539 11.6151C20.3121 11.85 20.4475 12.0586 20.6384 12.2073C20.8293 12.3561 21.0646 12.4364 21.3066 12.4355C21.3994 12.4364 21.4917 12.4225 21.5801 12.3944C21.7203 12.3596 21.8522 12.2969 21.9678 12.2101C22.0834 12.1233 22.1804 12.0143 22.2531 11.8893C22.3257 11.7644 22.3726 11.6261 22.3909 11.4827C22.4091 11.3393 22.3984 11.1938 22.3594 11.0546C22.0141 9.75509 21.3315 8.56993 20.3807 7.61917C19.43 6.6684 18.2448 5.98581 16.9453 5.64053C16.8026 5.58855 16.6507 5.56685 16.4992 5.57681C16.3477 5.58677 16.1999 5.62817 16.0653 5.69837C15.9306 5.76857 15.8121 5.86604 15.7172 5.98456C15.6222 6.10309 15.5531 6.24008 15.514 6.38681C15.4749 6.53355 15.4668 6.68681 15.4902 6.83684C15.5137 6.98686 15.5681 7.13037 15.65 7.25823C15.7319 7.38608 15.8395 7.49548 15.966 7.57946C16.0925 7.66344 16.2351 7.72015 16.3848 7.746Z" fill="#113E2E"/>
</svg>
