<svg width="25" height="25" viewBox="0 0 25 25" fill="none" xmlns="http://www.w3.org/2000/svg">
<path d="M24.95 18.8875C24.7289 20.5755 23.9023 22.1258 22.6239 23.2501C21.3456 24.3744 19.7024 24.9963 18 25C8.075 25 0 16.925 0 7.00001C0.00375294 5.29758 0.625592 3.65444 1.7499 2.37608C2.87421 1.09773 4.42449 0.27114 6.1125 0.0500099C6.54281 0.00229855 6.97713 0.092896 7.35247 0.308664C7.72782 0.524432 8.02468 0.854153 8.2 1.25001L10.7125 7.11251C10.8428 7.41681 10.8951 7.74885 10.8645 8.07847C10.834 8.40809 10.7216 8.72486 10.5375 9.00001L8.4625 12.175C9.4021 14.0819 10.9503 15.6213 12.8625 16.55L16 14.4625C16.2749 14.2772 16.5924 14.1651 16.9227 14.1366C17.253 14.1082 17.585 14.1644 17.8875 14.3L23.75 16.8C24.1459 16.9753 24.4756 17.2722 24.6913 17.6475C24.9071 18.0229 24.9977 18.4572 24.95 18.8875ZM15.675 2.96251C17.1971 3.37837 18.5846 4.18392 19.7003 5.29969C20.8161 6.41545 21.6216 7.80286 22.0375 9.32501C22.0927 9.53872 22.217 9.72816 22.3911 9.86383C22.5652 9.99949 22.7793 10.0737 23 10.075C23.0888 10.0748 23.1772 10.0622 23.2625 10.0375C23.3896 10.0042 23.5088 9.94595 23.6131 9.86604C23.7174 9.78612 23.8047 9.68619 23.8699 9.57211C23.9351 9.45802 23.9769 9.33207 23.9928 9.20164C24.0087 9.07121 23.9984 8.93891 23.9625 8.81251C23.4625 6.94837 22.4809 5.24858 21.1162 3.88385C19.7514 2.51911 18.0516 1.53748 16.1875 1.03751C16.0571 0.989989 15.9181 0.970149 15.7796 0.979253C15.6411 0.988357 15.506 1.02621 15.3829 1.09039C15.2598 1.15457 15.1514 1.24369 15.0646 1.35206C14.9778 1.46042 14.9146 1.58567 14.8789 1.71983C14.8431 1.85398 14.8357 1.99411 14.8572 2.13128C14.8786 2.26844 14.9283 2.39965 15.0032 2.51655C15.0781 2.63345 15.1765 2.73347 15.2921 2.81025C15.4078 2.88703 15.5382 2.93888 15.675 2.96251ZM14.6375 6.82501C15.4836 7.05662 16.2548 7.50463 16.8751 8.12493C17.4954 8.74523 17.9434 9.51641 18.175 10.3625C18.2282 10.5773 18.352 10.768 18.5265 10.904C18.7011 11.04 18.9162 11.1134 19.1375 11.1125C19.2223 11.1133 19.3067 11.1007 19.3875 11.075C19.5157 11.0431 19.6363 10.9858 19.742 10.9065C19.8477 10.8272 19.9364 10.7274 20.0028 10.6132C20.0692 10.499 20.1121 10.3725 20.1288 10.2415C20.1455 10.1104 20.1357 9.97725 20.1 9.85001C19.7843 8.6619 19.1602 7.57832 18.291 6.70905C17.4217 5.83978 16.3381 5.21569 15.15 4.90001C15.0196 4.85249 14.8806 4.83265 14.7421 4.84175C14.6036 4.85086 14.4685 4.88871 14.3454 4.95289C14.2223 5.01707 14.1139 5.10619 14.0271 5.21456C13.9403 5.32292 13.8771 5.44817 13.8414 5.58233C13.8056 5.71648 13.7982 5.85661 13.8197 5.99378C13.8411 6.13094 13.8908 6.26215 13.9657 6.37905C14.0406 6.49595 14.139 6.59597 14.2546 6.67275C14.3703 6.74953 14.5007 6.80138 14.6375 6.82501Z" fill="#0E0E0E"/>
</svg>
