<svg width="27" height="27" viewBox="0 0 27 27" fill="none" xmlns="http://www.w3.org/2000/svg">
<rect width="27" height="27" rx="10" fill="#FDFDFF"/>
<path d="M13.0773 21.0635L6.34671 14.333C4.55423 12.5405 4.50279 9.72478 6.14843 8.07914L6.14859 8.07898C7.79315 6.43292 10.6087 6.48473 12.4023 8.27742C12.4023 8.27745 12.4023 8.27747 12.4023 8.2775L12.7246 8.59973L13.0781 8.95329L13.4317 8.59973L13.7539 8.2775C13.7539 8.27747 13.754 8.27745 13.754 8.27742C15.5224 6.50988 18.2844 6.4347 19.9378 8.00996L20.0069 8.07906C21.6518 9.72469 21.6003 12.5404 19.8071 14.3329L19.807 14.333L13.0773 21.0635Z" stroke="#0E0E0E"/>
</svg>
