<svg width="20" height="23" viewBox="0 0 20 23" fill="none" xmlns="http://www.w3.org/2000/svg">
<path d="M9.30156 0.0276289C5.09687 0.0205977 1.19265 0.14341 1.24187 0.415285L2.27687 2.10935C5.05937 1.87029 7.7125 1.78357 10.3703 1.80138C12.8641 1.81779 15.3625 1.92654 17.9687 2.08685L19.4312 0.526848C19.2203 0.21091 14.0687 0.0355977 9.30156 0.0276289ZM9.47968 2.64372C7.17812 2.64935 4.87187 2.737 2.46297 2.93997C1.44156 8.73654 0.875779 15.81 2.20515 20.174L0.966248 21.6272C6.97187 22.0772 13.0844 22.2225 18.9016 21.9225L17.5 20.2537C18.4047 15.2756 18.1234 8.47872 17.5094 2.90435C15.1094 2.76091 12.8078 2.66529 10.5109 2.647L16.8016 8.42247H13.4594C13.6375 9.50529 14.4156 10.9678 15.2359 12.3225C15.7 13.0912 16.1734 13.8365 16.5344 14.4928C16.8953 15.149 17.1719 15.6975 17.1719 16.2506C17.1719 17.5631 16.2859 18.6412 14.9828 19.3397C13.6797 20.0428 11.9312 20.4225 10 20.4225C8.06875 20.4225 6.32031 20.0428 5.01719 19.3397C3.71406 18.6412 2.82812 17.5631 2.82812 16.2506C2.82812 15.6881 3.11875 15.1397 3.49844 14.474C3.87812 13.8084 4.37031 13.0584 4.84844 12.2803C5.69219 10.9162 6.46094 9.44435 6.56875 8.42247H2.875L9.47968 2.64372ZM9.99531 3.31732L5.125 7.57872H7.38906L7.42187 7.9631C7.54844 9.45841 6.53593 11.1506 5.56562 12.7256C5.07812 13.5131 4.59062 14.2584 4.23437 14.8912C3.87344 15.5193 3.67187 16.0631 3.67187 16.2506C3.67187 16.935 4 17.5397 4.61406 18.06C7.15469 17.7412 8.45781 17.5631 9.60156 17.5256C9.62969 17.1272 9.68125 16.7287 9.74687 16.3443C8.03125 16.4522 6.45156 15.9928 4.89531 15.4397C5.59375 14.0897 6.87812 13.1475 8.03594 13.1522C8.25156 13.1522 8.4625 13.1803 8.66406 13.2506C9.18906 13.4193 9.6625 14.3615 9.97656 15.1537C10.0797 14.6615 10.1781 14.2397 10.2203 13.9303V13.9256C10.2625 13.635 10.1453 12.8006 9.99531 12.1115C9.8875 11.6147 9.775 11.1787 9.71875 10.9725C9.42344 10.9725 9.16093 10.9162 8.9875 10.7381C7.79687 9.5006 8.57031 7.2131 9.59219 5.9381C10.3187 7.14747 11.2656 8.4506 12.2172 9.3506C12.0109 10.0443 11.6359 10.6022 10.9094 10.8506C10.8109 10.86 10.6891 10.874 10.5672 10.8928C10.6328 11.1365 10.7266 11.5022 10.8203 11.9287C10.8812 12.1959 10.9375 12.4725 10.9844 12.749C11.2328 12.5193 11.5187 12.3084 11.7531 12.299H11.8047C13.1172 12.4209 14.6031 13.6865 14.9781 15.5334C13.6891 14.9428 12.2125 15.285 11.0453 14.1178C10.9141 14.9897 10.5484 16.3022 10.45 17.5303C11.5797 17.5678 12.8828 17.7459 15.3859 18.06C16 17.5397 16.3281 16.935 16.3281 16.2506C16.3281 16.0537 16.1359 15.5193 15.7937 14.9006C15.4516 14.2772 14.9875 13.5412 14.5141 12.7584C13.5719 11.2022 12.5781 9.50997 12.5781 8.0006V7.57872H14.6359L9.99531 3.31732ZM10 18.3553C8.95469 18.3553 7.84844 18.4959 5.74844 18.7631C6.85937 19.274 8.35 19.5787 10 19.5787C11.65 19.5787 13.1406 19.274 14.2516 18.7631C12.1516 18.4959 11.0453 18.3553 10 18.3553Z" fill="#113E2E"/>
</svg>
