<svg width="20" height="19" viewBox="0 0 20 19" fill="none" xmlns="http://www.w3.org/2000/svg">
<path d="M0 18.9985V16.9985C0 16.9985 5 14.9985 10 14.9985C15 14.9985 20 16.9985 20 16.9985V18.9985H0ZM9.3 6.09847C8.1 2.19847 2 3.09847 2 3.09847C2 3.09847 2.2 10.8985 7.9 9.69847C7.5 6.79847 6 5.99847 6 5.99847C8.8 5.99847 9 9.39847 9 9.39847V13.9985H11V9.79847C11 9.79847 11 5.89847 14 4.89847C14 4.89847 12 7.89847 12 9.89847C19 10.5985 19 0.998466 19 0.998466C19 0.998466 10.1 -0.00153351 9.3 6.09847Z" fill="#113E2E"/>
</svg>
