<svg width="22" height="18" viewBox="0 0 22 18" fill="none" xmlns="http://www.w3.org/2000/svg">
<path d="M5.40002 4.99922V4.19922C5.40002 3.13835 5.82145 2.12094 6.57159 1.37079C7.32174 0.620646 8.33915 0.199219 9.40002 0.199219C10.4609 0.199219 11.4783 0.620646 12.2284 1.37079C12.9786 2.12094 13.4 3.13835 13.4 4.19922V13.468L17.184 9.68402L16.6288 7.61202L16.6272 7.60242H16.6256C16.5802 7.43209 16.5924 7.25155 16.6601 7.08882C16.7279 6.9261 16.8475 6.79032 17.0004 6.70257C17.1533 6.61482 17.3308 6.58002 17.5055 6.60357C17.6802 6.62713 17.8422 6.70772 17.9664 6.83282L21.1664 10.0328C21.2909 10.1569 21.3711 10.3185 21.3945 10.4927C21.418 10.6668 21.3834 10.8439 21.2962 10.9965C21.209 11.149 21.074 11.2686 20.912 11.3368C20.75 11.405 20.5701 11.4179 20.4 11.3736L20.384 11.3688L18.3152 10.8152L13.4 15.7304V16.1992C13.4 16.6236 13.2314 17.0305 12.9314 17.3306C12.6313 17.6306 12.2244 17.7992 11.8 17.7992H7.00002C6.57567 17.7992 6.16871 17.6306 5.86865 17.3306C5.56859 17.0305 5.40002 16.6236 5.40002 16.1992V15.4568L1.77122 11.828C1.02202 11.0772 0.601257 10.0599 0.601257 8.99922C0.601257 7.93856 1.02202 6.92122 1.77122 6.17042C2.14236 5.79851 2.58332 5.50359 3.06877 5.3026C3.55423 5.10161 4.0746 4.99851 4.60002 4.99922H5.40002ZM5.40002 6.59922H4.60002C4.12519 6.599 3.66096 6.73964 3.26608 7.00335C2.8712 7.26705 2.56342 7.64195 2.38168 8.08063C2.19994 8.51931 2.15241 9.00204 2.24511 9.46773C2.3378 9.93343 2.56655 10.3612 2.90242 10.6968L5.40002 13.1928V6.59922ZM11.8 4.99922V4.19922C11.8 3.5627 11.5472 2.95225 11.0971 2.50216C10.647 2.05208 10.0365 1.79922 9.40002 1.79922C8.7635 1.79922 8.15305 2.05208 7.70296 2.50216C7.25287 2.95225 7.00002 3.5627 7.00002 4.19922V4.99922H11.8Z" fill="#113E2E"/>
</svg>
