<svg width="24" height="22" viewBox="0 0 24 22" fill="none" xmlns="http://www.w3.org/2000/svg">
<path d="M22.125 5.0019H19.95C20.1763 4.5249 20.2791 3.99866 20.2489 3.47156C20.2187 2.94445 20.0566 2.43339 19.7773 1.98534C19.498 1.53729 19.1106 1.16663 18.6506 0.907413C18.1907 0.648201 17.6729 0.508758 17.145 0.501898C15.5893 0.463896 14.0737 0.997571 12.885 2.0019C12.5474 2.29679 12.2498 2.63467 12 3.0069C11.7502 2.63467 11.4526 2.29679 11.115 2.0019C9.92633 0.997571 8.41069 0.463896 6.855 0.501898C6.32708 0.508758 5.80935 0.648201 5.34939 0.907413C4.88944 1.16663 4.50201 1.53729 4.22273 1.98534C3.94344 2.43339 3.78126 2.94445 3.75108 3.47156C3.72089 3.99866 3.82368 4.5249 4.05 5.0019H1.875C1.37772 5.0019 0.900805 5.19944 0.549175 5.55107C0.197544 5.9027 0 6.37962 0 6.8769L0 19.6269C0 20.1242 0.197544 20.6011 0.549175 20.9527C0.900805 21.3044 1.37772 21.5019 1.875 21.5019H22.125C22.6223 21.5019 23.0992 21.3044 23.4508 20.9527C23.8025 20.6011 24 20.1242 24 19.6269V6.8769C24 6.37962 23.8025 5.9027 23.4508 5.55107C23.0992 5.19944 22.6223 5.0019 22.125 5.0019ZM14.13 3.4119C14.9711 2.71403 16.0375 2.34614 17.13 2.3769C17.4682 2.3769 17.7925 2.51123 18.0316 2.75034C18.2707 2.98945 18.405 3.31375 18.405 3.6519C18.405 3.99005 18.2707 4.31435 18.0316 4.55346C17.7925 4.79257 17.4682 4.9269 17.13 4.9269H13.11C13.3091 4.34009 13.6612 3.81708 14.13 3.4119ZM6.855 2.3769C7.94751 2.34614 9.01387 2.71403 9.855 3.4119C10.3216 3.81294 10.6736 4.33052 10.875 4.9119H6.855C6.51685 4.9119 6.19255 4.77757 5.95344 4.53846C5.71433 4.29935 5.58 3.97505 5.58 3.6369C5.58 3.29875 5.71433 2.97445 5.95344 2.73534C6.19255 2.49623 6.51685 2.3619 6.855 2.3619V2.3769ZM1.875 6.8769H22.125V8.7519H1.875V6.8769ZM1.875 19.6269V12.5019H22.125V19.6269H1.875Z" fill="#113E2E"/>
</svg>
