<svg width="27" height="33" viewBox="0 0 27 33" fill="none" xmlns="http://www.w3.org/2000/svg">
<path d="M13.5 16.5C14.3938 16.5 15.1591 16.1815 15.7961 15.5445C16.432 14.9086 16.75 14.1438 16.75 13.25C16.75 12.3562 16.432 11.5909 15.7961 10.9539C15.1591 10.318 14.3938 10 13.5 10C12.6062 10 11.8414 10.318 11.2055 10.9539C10.5685 11.5909 10.25 12.3562 10.25 13.25C10.25 14.1438 10.5685 14.9086 11.2055 15.5445C11.8414 16.1815 12.6062 16.5 13.5 16.5ZM13.5 32.75C9.13958 29.0396 5.88308 25.593 3.7305 22.4101C1.57683 19.2284 0.5 16.2833 0.5 13.575C0.5 9.5125 1.80704 6.27604 4.42113 3.86562C7.03413 1.45521 10.0604 0.25 13.5 0.25C16.9396 0.25 19.9659 1.45521 22.5789 3.86562C25.193 6.27604 26.5 9.5125 26.5 13.575C26.5 16.2833 25.4237 19.2284 23.2711 22.4101C21.1175 25.593 17.8604 29.0396 13.5 32.75Z" fill="#113E2E"/>
</svg>
