<svg width="11" height="11" viewBox="0 0 11 11" fill="none" xmlns="http://www.w3.org/2000/svg">
<path d="M7.56221 10.3142C7.58971 10.4975 7.52097 10.693 7.36287 10.8213C7.29927 10.878 7.22373 10.9229 7.14058 10.9536C7.05742 10.9842 6.96827 11 6.87825 11C6.78822 11 6.69907 10.9842 6.61592 10.9536C6.53276 10.9229 6.45722 10.878 6.39363 10.8213L3.63713 8.37109C3.56216 8.30594 3.50516 8.22626 3.47057 8.13828C3.43599 8.0503 3.42477 7.95641 3.43779 7.86393V4.73547L0.145116 0.989866C0.0334875 0.862485 -0.0168817 0.701007 0.005015 0.540717C0.0269117 0.380427 0.119294 0.234358 0.261975 0.134426C0.392582 0.0488823 0.536937 0 0.688166 0H10.3118C10.4631 0 10.6074 0.0488823 10.738 0.134426C10.8807 0.234358 10.9731 0.380427 10.995 0.540717C11.0169 0.701007 10.9665 0.862485 10.8549 0.989866L7.56221 4.73547V10.3142ZM2.09047 1.22206L4.81259 4.31386V7.68673L6.1874 8.90879V4.30775L8.90953 1.22206H2.09047Z" fill="black"/>
</svg>
