<svg width="27" height="28" viewBox="0 0 27 28" fill="black" xmlns="http://www.w3.org/2000/svg">
<path d="M8.33334 27.3332C7.60001 27.3332 6.97245 27.0723 6.45068 26.5505C5.92801 26.0278 5.66668 25.3998 5.66668 24.6665C5.66668 23.9332 5.92801 23.3052 6.45068 22.7825C6.97245 22.2607 7.60001 21.9998 8.33334 21.9998C9.06668 21.9998 9.69423 22.2607 10.216 22.7825C10.7387 23.3052 11 23.9332 11 24.6665C11 25.3998 10.7387 26.0278 10.216 26.5505C9.69423 27.0723 9.06668 27.3332 8.33334 27.3332ZM21.6667 27.3332C20.9333 27.3332 20.3058 27.0723 19.784 26.5505C19.2613 26.0278 19 25.3998 19 24.6665C19 23.9332 19.2613 23.3052 19.784 22.7825C20.3058 22.2607 20.9333 21.9998 21.6667 21.9998C22.4 21.9998 23.028 22.2607 23.5507 22.7825C24.0725 23.3052 24.3333 23.9332 24.3333 24.6665C24.3333 25.3998 24.0725 26.0278 23.5507 26.5505C23.028 27.0723 22.4 27.3332 21.6667 27.3332ZM8.33334 20.6665C7.33334 20.6665 6.57779 20.2274 6.06668 19.3492C5.55557 18.4718 5.53334 17.5998 6.00001 16.7332L7.80001 13.4665L3.00001 3.33317H1.63334C1.25557 3.33317 0.944455 3.20517 0.70001 2.94917C0.455566 2.69406 0.333344 2.37761 0.333344 1.99984C0.333344 1.62206 0.461343 1.30517 0.717344 1.04917C0.972455 0.794059 1.2889 0.666504 1.66668 0.666504H3.83334C4.07779 0.666504 4.31112 0.733171 4.53334 0.866504C4.75557 0.999837 4.92223 1.18873 5.03334 1.43317L5.93334 3.33317H25.6C26.2 3.33317 26.6111 3.55539 26.8333 3.99984C27.0556 4.44428 27.0445 4.91095 26.8 5.39984L22.0667 13.9332C21.8222 14.3776 21.5 14.7221 21.1 14.9665C20.7 15.2109 20.2445 15.3332 19.7333 15.3332H9.80001L8.33334 17.9998H23.0333C23.4111 17.9998 23.7222 18.1274 23.9667 18.3825C24.2111 18.6385 24.3333 18.9554 24.3333 19.3332C24.3333 19.7109 24.2053 20.0274 23.9493 20.2825C23.6942 20.5385 23.3778 20.6665 23 20.6665H8.33334Z" fill="#0E0E0E"/>
</svg>
